<?xml version="1.0" standalone="no"?>
<!DOCTYPE svg PUBLIC "-//W3C//DTD SVG 20010904//EN"
 "http://www.w3.org/TR/2001/REC-SVG-20010904/DTD/svg10.dtd">
<svg version="1.0" xmlns="http://www.w3.org/2000/svg"
 width="512.000000pt" height="512.000000pt" viewBox="0 0 512.000000 512.000000"
 preserveAspectRatio="xMidYMid meet">
<metadata>
Created by potrace 1.11, written by Peter Selinger 2001-2013
</metadata>
<g transform="translate(0.000000,512.000000) scale(0.100000,-0.100000)"
fill="#000000" stroke="none">
<path d="M2480 3259 l0 -741 -22 6 c-188 55 -371 43 -533 -34 -190 -91 -344
-284 -389 -487 -20 -90 -20 -236 -1 -328 53 -251 267 -470 523 -536 103 -26
262 -26 366 1 196 50 364 189 456 375 79 160 74 93 78 1103 l3 902 319 0 320
0 0 240 0 240 -560 0 -560 0 0 -741z"/>
</g>
</svg>
